<svg width="148" height="48" viewBox="0 0 148 48" fill="none" xmlns="http://www.w3.org/2000/svg">
  <path d="M5.96466 1.57629C7.69534 1.57629 9.14788 1.751 10.3223 2.10043C11.4967 2.44986 12.3826 3.02539 12.9801 3.82702C13.5776 4.62865 13.8763 5.69749 13.8763 7.03355C13.8763 7.89684 13.7218 8.66764 13.4128 9.34594C13.1243 10.0037 12.6917 10.5587 12.1148 11.0109C11.5379 11.4425 10.827 11.7406 9.98231 11.905V12.0592C10.8477 12.203 11.6203 12.4702 12.3002 12.8608C13.0007 13.2513 13.5467 13.8063 13.9382 14.5257C14.3502 15.2451 14.5563 16.1804 14.5563 17.3314C14.5563 18.6675 14.2575 19.8083 13.66 20.7538C13.0831 21.6787 12.259 22.3879 11.1876 22.8812C10.1162 23.3539 8.82853 23.5903 7.32448 23.5903H0V1.57629H5.96466ZM6.49005 10.9492C8.22073 10.9492 9.40542 10.6512 10.0441 10.0551C10.7034 9.43844 11.0331 8.53404 11.0331 7.34187C11.0331 6.12914 10.6313 5.26585 9.82779 4.75198C9.04486 4.21756 7.79836 3.95035 6.08828 3.95035H2.75054V10.9492H6.49005ZM2.75054 13.2616V21.2471H6.83C8.62249 21.2471 9.86899 20.8668 10.5695 20.1063C11.2906 19.3458 11.6512 18.3489 11.6512 17.1156C11.6512 16.3345 11.4864 15.6562 11.1567 15.0807C10.8477 14.5052 10.3326 14.0632 9.61145 13.7549C8.89034 13.426 7.90138 13.2616 6.64457 13.2616H2.75054Z" fill="#0000C9"/>
  <path d="M25.9689 6.75606C26.2573 6.75606 26.5664 6.77661 26.896 6.81772C27.2257 6.83828 27.5141 6.87939 27.7614 6.94105L27.4523 9.43844C27.2051 9.37677 26.9269 9.32539 26.6179 9.28428C26.3294 9.24317 26.0513 9.22262 25.7835 9.22262C25.186 9.22262 24.6194 9.35622 24.0837 9.62343C23.548 9.89064 23.0638 10.2709 22.6311 10.7642C22.2191 11.237 21.8894 11.8125 21.6422 12.4908C21.3949 13.1691 21.2713 13.9296 21.2713 14.7724V23.5903H18.5826V7.06438H20.7768L21.0859 10.0859H21.2095C21.5392 9.46927 21.9306 8.9143 22.3839 8.42098C22.8578 7.90712 23.3935 7.5063 23.991 7.21854C24.5885 6.91022 25.2478 6.75606 25.9689 6.75606Z" fill="#0000C9"/>
  <path d="M36.0461 6.78689C37.9416 6.78689 39.3529 7.22882 40.2801 8.11266C41.2278 8.99651 41.7017 10.4045 41.7017 12.3366V23.5903H39.7547L39.2293 21.2471H39.1057C38.6524 21.8432 38.1888 22.3468 37.715 22.7578C37.2617 23.1484 36.726 23.4361 36.1079 23.6211C35.5104 23.8061 34.7687 23.8986 33.8827 23.8986C32.9556 23.8986 32.1212 23.7239 31.3794 23.3745C30.6377 23.0251 30.0505 22.4906 29.6178 21.7712C29.1852 21.0313 28.9688 20.1063 28.9688 18.9963C28.9688 17.352 29.5766 16.0879 30.7922 15.204C32.0078 14.2996 33.8827 13.8063 36.4169 13.7241L39.0439 13.6316V12.645C39.0439 11.2678 38.7657 10.312 38.2094 9.77759C37.6737 9.24317 36.9011 8.97596 35.8916 8.97596C35.088 8.97596 34.3154 9.10956 33.5737 9.37677C32.8526 9.62343 32.1624 9.9112 31.5031 10.2401L30.6686 8.20516C31.3691 7.81462 32.183 7.48575 33.1101 7.21854C34.0373 6.93077 35.0159 6.78689 36.0461 6.78689ZM36.7878 15.6048C34.8923 15.687 33.5737 16.0159 32.832 16.5915C32.1109 17.167 31.7503 17.9789 31.7503 19.0272C31.7503 19.9521 32.0078 20.6304 32.5229 21.0621C33.038 21.4937 33.7076 21.7096 34.5317 21.7096C35.8092 21.7096 36.8805 21.3293 37.7459 20.5688C38.6112 19.7877 39.0439 18.5955 39.0439 16.9923V15.5123L36.7878 15.6048Z" fill="#0000C9"/>
  <path d="M54.1023 6.75606C55.9566 6.75606 57.3577 7.23909 58.3054 8.20516C59.2738 9.15067 59.7579 10.6923 59.7579 12.83V23.5903H57.0692V13.0149C57.0692 11.6789 56.7911 10.682 56.2348 10.0242C55.6785 9.3665 54.8234 9.03762 53.6697 9.03762C51.9802 9.03762 50.8058 9.55149 50.1465 10.5792C49.5078 11.607 49.1884 13.0869 49.1884 15.019V23.5903H46.4997V7.06438H48.6631L49.0648 9.31511H49.2193C49.549 8.73958 49.9714 8.26682 50.4864 7.89684C51.0015 7.5063 51.5681 7.21854 52.1862 7.03355C52.8043 6.84855 53.443 6.75606 54.1023 6.75606Z" fill="#0000C9"/>
  <path d="M70.0488 23.8986C68.1327 23.8986 66.5875 23.1895 65.4131 21.7712C64.2593 20.3324 63.6824 18.1947 63.6824 15.3582C63.6824 12.5216 64.2696 10.384 65.444 8.94513C66.6184 7.48575 68.1636 6.75606 70.0797 6.75606C70.8833 6.75606 71.5838 6.86911 72.1813 7.09521C72.7788 7.30076 73.2938 7.58852 73.7265 7.95851C74.1798 8.32849 74.561 8.73958 74.87 9.19178H75.0554C75.0348 8.92457 74.9936 8.53404 74.9318 8.02017C74.8906 7.48575 74.87 7.06438 74.87 6.75606V0.15802H77.5587V23.5903H75.3954L74.9936 21.3704H74.87C74.561 21.8432 74.1798 22.2748 73.7265 22.6653C73.2938 23.0353 72.7685 23.3334 72.1504 23.5595C71.5529 23.7856 70.8524 23.8986 70.0488 23.8986ZM70.5433 21.6479C72.1504 21.6479 73.2732 21.1751 73.9119 20.2296C74.5713 19.2636 74.9009 17.8145 74.9009 15.8823V15.389C74.9009 13.3335 74.5919 11.7611 73.9738 10.6717C73.3557 9.56177 72.2019 9.00679 70.5124 9.00679C69.1526 9.00679 68.1327 9.5926 67.4528 10.7642C66.7935 11.9153 66.4638 13.4671 66.4638 15.4198C66.4638 17.3931 66.7935 18.9244 67.4528 20.0138C68.1327 21.1032 69.1629 21.6479 70.5433 21.6479Z" fill="#0000C9"/>
  <path d="M84.2992 23.5903H82.5376V0.15802H84.2992V23.5903Z" fill="#0000C9"/>
  <path d="M102.308 15.389C102.308 16.6634 102.154 17.8247 101.845 18.873C101.556 19.9008 101.113 20.7949 100.516 21.5554C99.9389 22.2954 99.2075 22.8709 98.3216 23.282C97.4562 23.6931 96.457 23.8986 95.3238 23.8986C94.2524 23.8986 93.2841 23.7034 92.4187 23.3128C91.574 22.9017 90.8529 22.3262 90.2554 21.5862C89.6579 20.8257 89.2046 19.9213 88.8956 18.873C88.5865 17.8247 88.432 16.6634 88.432 15.389C88.432 13.6008 88.7101 12.0797 89.2664 10.8259C89.8227 9.55149 90.6262 8.57514 91.677 7.89684C92.7484 7.21854 94.0155 6.87939 95.4783 6.87939C96.9618 6.87939 98.2083 7.23909 99.2178 7.95851C100.227 8.65736 100.99 9.64399 101.505 10.9184C102.04 12.1928 102.308 13.683 102.308 15.389ZM90.2554 15.389C90.2554 16.7867 90.4408 18.02 90.8117 19.0888C91.1825 20.1371 91.7388 20.949 92.4805 21.5246C93.2429 22.1001 94.2009 22.3879 95.3547 22.3879C96.5291 22.3879 97.4974 22.1001 98.2598 21.5246C99.0221 20.9285 99.5887 20.1063 99.9595 19.058C100.33 17.9892 100.516 16.7662 100.516 15.389C100.516 14.0118 100.341 12.7991 99.9904 11.7508C99.6402 10.7025 99.0942 9.88036 98.3525 9.28428C97.6108 8.68819 96.6321 8.39015 95.4165 8.39015C93.7064 8.39015 92.4187 9.00679 91.5534 10.2401C90.688 11.4733 90.2554 13.1897 90.2554 15.389Z" fill="#0000C9"/>
  <path d="M112.126 6.87939C113.321 6.87939 114.31 7.13632 115.093 7.65019C115.897 8.1435 116.546 8.8218 117.04 9.68509H117.133L117.411 7.18771H118.833V24.1145C118.833 25.5533 118.596 26.7763 118.122 27.7835C117.669 28.8112 116.948 29.6025 115.959 30.1575C114.97 30.7125 113.692 30.99 112.126 30.99C110.952 30.99 109.912 30.8872 109.005 30.6817C108.119 30.4761 107.316 30.2089 106.594 29.88V28.1843C107.089 28.4309 107.625 28.657 108.202 28.8626C108.778 29.0681 109.407 29.2223 110.087 29.3251C110.767 29.4278 111.467 29.4792 112.188 29.4792C113.857 29.4792 115.093 29.0065 115.897 28.0609C116.7 27.1154 117.102 25.841 117.102 24.2378V23.2512C117.102 22.8195 117.102 22.3879 117.102 21.9562C117.123 21.504 117.143 21.0826 117.164 20.6921H117.071C116.639 21.7404 115.979 22.542 115.093 23.097C114.228 23.6314 113.167 23.8986 111.91 23.8986C109.932 23.8986 108.377 23.1792 107.243 21.7404C106.131 20.3016 105.575 18.2358 105.575 15.5432C105.575 13.7549 105.822 12.2133 106.316 10.9184C106.831 9.62343 107.573 8.62653 108.541 7.92767C109.53 7.22882 110.725 6.87939 112.126 6.87939ZM112.343 8.39015C111.251 8.39015 110.334 8.67792 109.592 9.25345C108.871 9.80842 108.325 10.6203 107.954 11.6892C107.583 12.7375 107.398 14.0221 107.398 15.5432C107.398 17.7836 107.8 19.4897 108.603 20.6613C109.427 21.8329 110.612 22.4187 112.157 22.4187C113.105 22.4187 113.898 22.2645 114.537 21.9562C115.176 21.6273 115.681 21.1751 116.051 20.5996C116.422 20.0241 116.69 19.3458 116.855 18.5647C117.02 17.7631 117.102 16.91 117.102 16.0056V14.9265C117.102 13.5288 116.948 12.3469 116.639 11.3809C116.33 10.4148 115.825 9.67482 115.124 9.16095C114.424 8.64709 113.497 8.39015 112.343 8.39015Z" fill="#0000C9"/>
  <path d="M136.895 15.389C136.895 16.6634 136.741 17.8247 136.432 18.873C136.143 19.9008 135.7 20.7949 135.103 21.5554C134.526 22.2954 133.795 22.8709 132.909 23.282C132.043 23.6931 131.044 23.8986 129.911 23.8986C128.839 23.8986 127.871 23.7034 127.006 23.3128C126.161 22.9017 125.44 22.3262 124.842 21.5862C124.245 20.8257 123.792 19.9213 123.483 18.873C123.174 17.8247 123.019 16.6634 123.019 15.389C123.019 13.6008 123.297 12.0797 123.853 10.8259C124.41 9.55149 125.213 8.57514 126.264 7.89684C127.335 7.21854 128.603 6.87939 130.065 6.87939C131.549 6.87939 132.795 7.23909 133.805 7.95851C134.814 8.65736 135.577 9.64399 136.092 10.9184C136.628 12.1928 136.895 13.683 136.895 15.389ZM124.842 15.389C124.842 16.7867 125.028 18.02 125.399 19.0888C125.77 20.1371 126.326 20.949 127.068 21.5246C127.83 22.1001 128.788 22.3879 129.942 22.3879C131.116 22.3879 132.084 22.1001 132.847 21.5246C133.609 20.9285 134.176 20.1063 134.547 19.058C134.917 17.9892 135.103 16.7662 135.103 15.389C135.103 14.0118 134.928 12.7991 134.577 11.7508C134.227 10.7025 133.681 9.88036 132.94 9.28428C132.198 8.68819 131.219 8.39015 130.004 8.39015C128.293 8.39015 127.006 9.00679 126.14 10.2401C125.275 11.4733 124.842 13.1897 124.842 15.389Z" fill="#0000C9"/>
  <path d="M140.904 30.99H140.477V26.1303H138.895V25.7485H142.479V26.1303H140.904V30.99Z" fill="#0000C9"/>
  <path d="M145.363 30.99L143.612 26.1963H143.59C143.6 26.2844 143.605 26.3848 143.605 26.4973C143.61 26.605 143.612 26.72 143.612 26.8423C143.617 26.9598 143.619 27.0821 143.619 27.2094V30.99H143.222V25.7485H143.855L145.54 30.344H145.562L147.262 25.7485H147.895V30.99H147.468V27.1653C147.468 27.0577 147.468 26.9476 147.468 26.835C147.473 26.7224 147.478 26.6123 147.483 26.5047C147.492 26.397 147.497 26.2967 147.497 26.2037H147.475L145.709 30.99H145.363Z" fill="#0000C9"/>
  <path d="M0 41.794C0 40.5993 0.172667 39.4746 0.518 38.42C0.863333 37.3653 1.372 36.4366 2.044 35.634H2.856C2.17467 36.4926 1.66133 37.4493 1.316 38.504C0.98 39.5493 0.812 40.6413 0.812 41.78C0.812 42.9093 0.98 43.9873 1.316 45.014C1.66133 46.0406 2.17 46.9833 2.842 47.842H2.044C1.372 47.0393 0.863333 46.1246 0.518 45.098C0.172667 44.0713 0 42.97 0 41.794Z" fill="#0000C9"/>
  <path d="M4.73928 35.634H7.51128C8.74328 35.634 9.65328 35.8253 10.2413 36.208C10.8293 36.5906 11.1233 37.2113 11.1233 38.07C11.1233 38.6486 10.9553 39.1433 10.6193 39.554C10.2833 39.9646 9.80262 40.226 9.17728 40.338V40.394C9.90528 40.506 10.456 40.758 10.8293 41.15C11.212 41.5326 11.4033 42.0786 11.4033 42.788C11.4033 43.432 11.254 43.964 10.9553 44.384C10.666 44.804 10.2553 45.1166 9.72328 45.322C9.20062 45.5273 8.59395 45.63 7.90328 45.63H4.73928V35.634ZM5.55128 40.044H7.69328C8.60795 40.044 9.26595 39.8853 9.66728 39.568C10.078 39.2506 10.2833 38.7793 10.2833 38.154C10.2833 37.51 10.064 37.048 9.62529 36.768C9.18662 36.488 8.48195 36.348 7.51128 36.348H5.55128V40.044ZM5.55128 40.744V44.93H7.83328C9.64395 44.93 10.5493 44.202 10.5493 42.746C10.5493 42.0553 10.316 41.5513 9.84929 41.234C9.39195 40.9073 8.67795 40.744 7.70728 40.744H5.55128Z" fill="#0000C9"/>
  <path d="M16.4858 38.056C16.8778 38.056 17.2138 38.098 17.4938 38.182L17.3818 38.91C17.2325 38.8726 17.0831 38.8446 16.9338 38.826C16.7845 38.8073 16.6258 38.798 16.4578 38.798C15.7671 38.798 15.2211 39.05 14.8198 39.554C14.4278 40.0486 14.2318 40.7113 14.2318 41.542V45.63H13.4338V38.182H14.1058L14.1898 39.582H14.2318C14.4185 39.162 14.6985 38.8026 15.0718 38.504C15.4545 38.2053 15.9258 38.056 16.4858 38.056Z" fill="#0000C9"/>
  <path d="M21.3189 38.056C22.1589 38.056 22.7842 38.2613 23.1949 38.672C23.6056 39.0826 23.8109 39.7313 23.8109 40.618V45.63H23.2089L23.0549 44.37H23.0269C22.7656 44.79 22.4389 45.1306 22.0469 45.392C21.6549 45.644 21.1136 45.77 20.4229 45.77C19.7136 45.77 19.1489 45.5926 18.7289 45.238C18.3182 44.8833 18.1129 44.3653 18.1129 43.684C18.1129 42.9466 18.4116 42.382 19.0089 41.99C19.6156 41.598 20.5023 41.3786 21.6689 41.332L23.0269 41.262V40.744C23.0269 40.0066 22.8776 39.4886 22.5789 39.19C22.2896 38.882 21.8603 38.728 21.2909 38.728C20.9082 38.728 20.5396 38.7793 20.1849 38.882C19.8302 38.9753 19.4756 39.1153 19.1209 39.302L18.8689 38.658C19.2142 38.4806 19.5969 38.336 20.0169 38.224C20.4369 38.112 20.8709 38.056 21.3189 38.056ZM23.0269 41.878L21.7669 41.934C20.8149 41.9713 20.1056 42.1346 19.6389 42.424C19.1722 42.704 18.9389 43.1286 18.9389 43.698C18.9389 44.1553 19.0836 44.5053 19.3729 44.748C19.6622 44.9813 20.0589 45.098 20.5629 45.098C21.3376 45.098 21.9349 44.8786 22.3549 44.44C22.7842 44.0013 23.0082 43.3853 23.0269 42.592V41.878Z" fill="#0000C9"/>
  <path d="M29.5416 38.042C30.3909 38.042 31.0396 38.2613 31.4876 38.7C31.9356 39.1386 32.1596 39.8246 32.1596 40.758V45.63H31.3616V40.814C31.3616 40.1046 31.1982 39.582 30.8716 39.246C30.5542 38.91 30.0829 38.742 29.4576 38.742C27.8149 38.742 26.9936 39.6846 26.9936 41.57V45.63H26.2096V38.182H26.8536L26.9656 39.47H27.0216C27.2176 39.0593 27.5256 38.7186 27.9456 38.448C28.3749 38.1773 28.9069 38.042 29.5416 38.042Z" fill="#0000C9"/>
  <path d="M37.2402 45.77C36.2416 45.77 35.4715 45.4526 34.9302 44.818C34.3982 44.174 34.1322 43.2313 34.1322 41.99C34.1322 40.702 34.4122 39.722 34.9722 39.05C35.5415 38.378 36.3209 38.042 37.3102 38.042C37.9356 38.042 38.4442 38.1773 38.8362 38.448C39.2282 38.7186 39.5176 39.0593 39.7042 39.47H39.7602C39.7509 39.246 39.7369 38.9986 39.7182 38.728C39.7089 38.4573 39.7042 38.2193 39.7042 38.014V34.99H40.5022V45.63H39.8582L39.7462 44.342H39.7042C39.5082 44.734 39.2142 45.07 38.8222 45.35C38.4302 45.63 37.9029 45.77 37.2402 45.77ZM37.3382 45.084C38.1969 45.084 38.8082 44.8226 39.1722 44.3C39.5362 43.7773 39.7182 43.026 39.7182 42.046V41.906C39.7182 40.8793 39.5362 40.0953 39.1722 39.554C38.8082 39.0033 38.2156 38.728 37.3942 38.728C36.5916 38.728 35.9849 39.0126 35.5742 39.582C35.1636 40.142 34.9582 40.9446 34.9582 41.99C34.9582 43.0073 35.1542 43.7773 35.5462 44.3C35.9382 44.8226 36.5356 45.084 37.3382 45.084Z" fill="#0000C9"/>
  <path d="M45.0499 41.738C45.0499 42.9233 44.8772 44.0433 44.5319 45.098C44.1865 46.1433 43.6779 47.058 43.0059 47.842H42.2079C42.8892 46.9833 43.3979 46.036 43.7339 45C44.0699 43.964 44.2379 42.8766 44.2379 41.738C44.2379 40.5993 44.0652 39.512 43.7199 38.476C43.3839 37.44 42.8752 36.4926 42.1939 35.634H43.0059C43.6779 36.446 44.1865 37.37 44.5319 38.406C44.8772 39.442 45.0499 40.5526 45.0499 41.738Z" fill="#0000C9"/>
  <path d="M53.1907 35.634C55.5893 35.634 56.7887 36.5766 56.7887 38.462C56.7887 39.4233 56.476 40.1793 55.8507 40.73C55.2347 41.2713 54.2733 41.542 52.9667 41.542H51.5107V45.63H50.6987V35.634H53.1907ZM53.1067 36.348H51.5107V40.842H52.8827C53.8533 40.842 54.6047 40.674 55.1367 40.338C55.678 39.9926 55.9487 39.3813 55.9487 38.504C55.9487 37.7573 55.7153 37.2113 55.2487 36.866C54.7913 36.5206 54.0773 36.348 53.1067 36.348Z" fill="#0000C9"/>
  <path d="M61.8436 38.056C62.2356 38.056 62.5716 38.098 62.8516 38.182L62.7396 38.91C62.5903 38.8726 62.441 38.8446 62.2916 38.826C62.1423 38.8073 61.9836 38.798 61.8156 38.798C61.125 38.798 60.579 39.05 60.1776 39.554C59.7856 40.0486 59.5896 40.7113 59.5896 41.542V45.63H58.7916V38.182H59.4636L59.5476 39.582H59.5896C59.7763 39.162 60.0563 38.8026 60.4296 38.504C60.8123 38.2053 61.2836 38.056 61.8436 38.056Z" fill="#0000C9"/>
  <path d="M70.2747 41.906C70.2747 42.6806 70.1441 43.3573 69.8828 43.936C69.6308 44.5146 69.2527 44.9673 68.7487 45.294C68.2541 45.6113 67.6474 45.77 66.9287 45.77C66.2381 45.77 65.6454 45.6113 65.1507 45.294C64.6561 44.9766 64.2734 44.5286 64.0027 43.95C63.7414 43.3713 63.6107 42.69 63.6107 41.906C63.6107 40.6926 63.9094 39.7453 64.5068 39.064C65.1134 38.3826 65.9394 38.042 66.9847 38.042C67.6941 38.042 68.2914 38.2053 68.7767 38.532C69.2714 38.8493 69.6448 39.2973 69.8968 39.876C70.1488 40.4546 70.2747 41.1313 70.2747 41.906ZM64.4368 41.906C64.4368 42.858 64.6374 43.628 65.0387 44.216C65.4401 44.7946 66.0701 45.084 66.9287 45.084C67.7968 45.084 68.4314 44.7946 68.8327 44.216C69.2434 43.628 69.4488 42.858 69.4488 41.906C69.4488 41.29 69.3647 40.744 69.1967 40.268C69.0287 39.792 68.7627 39.4186 68.3988 39.148C68.0348 38.8773 67.5587 38.742 66.9707 38.742C66.1214 38.742 65.4867 39.022 65.0667 39.582C64.6468 40.142 64.4368 40.9166 64.4368 41.906Z" fill="#0000C9"/>
  <path d="M74.9934 45.77C73.9947 45.77 73.2247 45.4526 72.6834 44.818C72.1514 44.174 71.8854 43.2313 71.8854 41.99C71.8854 40.702 72.1654 39.722 72.7254 39.05C73.2947 38.378 74.074 38.042 75.0634 38.042C75.6887 38.042 76.1974 38.1773 76.5894 38.448C76.9814 38.7186 77.2707 39.0593 77.4574 39.47H77.5134C77.504 39.246 77.49 38.9986 77.4714 38.728C77.462 38.4573 77.4574 38.2193 77.4574 38.014V34.99H78.2554V45.63H77.6114L77.4994 44.342H77.4574C77.2614 44.734 76.9674 45.07 76.5754 45.35C76.1834 45.63 75.656 45.77 74.9934 45.77ZM75.0914 45.084C75.95 45.084 76.5614 44.8226 76.9254 44.3C77.2894 43.7773 77.4714 43.026 77.4714 42.046V41.906C77.4714 40.8793 77.2894 40.0953 76.9254 39.554C76.5614 39.0033 75.9687 38.728 75.1474 38.728C74.3447 38.728 73.738 39.0126 73.3274 39.582C72.9167 40.142 72.7114 40.9446 72.7114 41.99C72.7114 43.0073 72.9074 43.7773 73.2994 44.3C73.6914 44.8226 74.2887 45.084 75.0914 45.084Z" fill="#0000C9"/>
  <path d="M86.583 38.182V45.63H85.925L85.813 44.356H85.771C85.5657 44.7573 85.2484 45.0933 84.819 45.364C84.399 45.6346 83.8717 45.77 83.237 45.77C81.4824 45.77 80.605 44.8646 80.605 43.054V38.182H81.417V42.998C81.417 43.7073 81.5757 44.2346 81.893 44.58C82.2104 44.916 82.6864 45.084 83.321 45.084C84.9637 45.084 85.785 44.1366 85.785 42.242V38.182H86.583Z" fill="#0000C9"/>
  <path d="M92.0557 45.77C90.9637 45.77 90.119 45.4386 89.5217 44.776C88.9337 44.104 88.6397 43.1613 88.6397 41.948C88.6397 41.1173 88.789 40.4126 89.0877 39.834C89.3863 39.246 89.8017 38.8026 90.3337 38.504C90.875 38.196 91.5003 38.042 92.2097 38.042C92.5737 38.042 92.9097 38.0746 93.2177 38.14C93.535 38.2053 93.815 38.294 94.0577 38.406L93.8337 39.106C93.311 38.8726 92.7697 38.756 92.2097 38.756C91.3323 38.756 90.6557 39.0406 90.1797 39.61C89.7037 40.1793 89.4657 40.954 89.4657 41.934C89.4657 42.8673 89.6757 43.6233 90.0957 44.202C90.5157 44.7806 91.1643 45.07 92.0417 45.07C92.415 45.07 92.765 45.0326 93.0917 44.958C93.4183 44.8833 93.7123 44.7853 93.9737 44.664V45.378C93.731 45.4993 93.451 45.5926 93.1337 45.658C92.8163 45.7326 92.457 45.77 92.0557 45.77Z" fill="#0000C9"/>
  <path d="M97.8487 45.098C98.054 45.098 98.25 45.084 98.4367 45.056C98.6327 45.0186 98.796 44.9766 98.9267 44.93V45.574C98.7773 45.63 98.6 45.6766 98.3947 45.714C98.1987 45.7513 97.9793 45.77 97.7367 45.77C97.1207 45.77 96.6447 45.5973 96.3087 45.252C95.9727 44.8973 95.8047 44.3326 95.8047 43.558V38.826H94.6987V38.378L95.8047 38.126L96.0847 36.404H96.5887V38.182H98.8847V38.826H96.5887V43.53C96.5887 44.5753 97.0087 45.098 97.8487 45.098Z" fill="#0000C9"/>
</svg>
