<svg xmlns="http://www.w3.org/2000/svg" viewBox="0 0 32 40.08">
  <path d="m16,0L0,6s0,.01,0,.03h0v11.95c0,5.37,1.52,10.12,4.55,14.28,3.03,4.15,6.85,6.76,11.45,7.82.3-.1.62-.19.95-.27.15-.04.3-.09.45-.14,3.98-1.24,7.33-3.71,10.05-7.43,3.03-4.15,4.55-8.91,4.55-14.28V6L16,0Zm13,17.95c0,2.53-.41,4.87-1.22,7-.82,2.13-1.86,4.01-3.12,5.62-1.27,1.62-2.67,2.96-4.2,4.03s-3.02,1.83-4.45,2.3c0,0,0,.02-.01.02-1.43-.47-2.91-1.23-4.44-2.29-1.53-1.07-2.93-2.41-4.2-4.03s-2.31-3.49-3.12-5.62c-.82-2.13-1.22-4.47-1.22-7v-9.85l13-4.8,13,4.8v9.82Z"/>
  <polygon points="14.5 27.53 17.5 27.53 17.5 21.53 23.5 21.53 23.5 18.53 17.5 18.53 17.5 12.53 14.5 12.53 14.5 18.53 8.5 18.53 8.5 21.53 14.5 21.53 14.5 27.53"/>
</svg>
