<svg width="157" height="94" viewBox="0 0 157 94" fill="none" xmlns="http://www.w3.org/2000/svg">
  <g>
    <path d="M0.414062 35.9882C0.484824 35.7824 0.567668 35.5819 0.664318 35.3849C3.12373 30.3265 13.6845 28.2516 28.831 30.0929L31.879 18.7731C16.3079 16.7748 4.93937 19.0224 3.04433 26.1801L0.414062 35.9865V35.9882Z" fill="#0095FF"/>
    <path d="M57.2488 24.2109C57.1728 24.4306 57.0831 24.6451 56.9795 24.8543C54.4839 29.8813 43.9421 31.9318 28.837 30.094L25.7891 41.4139C41.3601 43.4121 52.7286 41.1645 54.6237 34.0068L57.2505 24.2127L57.2488 24.2109Z" fill="#0600D1"/>
    <path d="M10.3828 12.2827C33.3684 13.9479 56.8475 25.4334 54.6228 34.0052L56.6818 26.3488C57.3411 23.9356 57.6708 22.6871 57.6708 21.688C57.6708 12.9488 35.0166 2.29504 13.4325 0.962891L10.3845 12.2827H10.3828Z" fill="#0095FF"/>
    <path d="M47.2879 47.9059C24.3024 46.2407 0.823255 34.7552 3.04794 26.1816L0.988941 33.838C0.329647 36.2513 0 37.4997 0 38.4988C0 47.238 22.6559 57.8918 44.24 59.2239L47.2879 47.9041V47.9059Z" fill="#0600D1"/>
    <path d="M131.125 45.2433C128.217 45.2816 126.669 43.4107 126.669 40.0908C126.669 39.8711 126.676 39.6549 126.684 39.4421H138.113C138.339 38.5651 138.491 37.6095 138.491 36.7325C138.491 32.6872 136.035 29.5957 131.013 29.5957C125.991 29.5957 121.305 34.7098 121.305 40.0908C121.305 45.4717 124.629 48.3714 130.181 48.3714C132.637 48.3714 135.053 47.5327 136.753 46.2337L135.695 43.5624C134.373 44.5929 132.749 45.2032 131.125 45.2415V45.2433ZM131.087 32.4971C132.787 32.4971 133.655 33.6044 133.655 36.0455C133.655 36.2774 133.641 36.518 133.614 36.7708H127.095C127.803 34.2024 129.318 32.4971 131.087 32.4971Z" fill="#0600D1"/>
    <path d="M85.8764 28.4513C85.8764 24.2543 82.6283 21.2012 77.7181 21.2012H68.1997L61.0234 47.914H67.0296L69.6754 38.0693H74.8876C80.8558 38.0693 85.8799 34.1775 85.8799 28.453L85.8764 28.4513ZM72.5801 34.9394H70.5142L73.3636 24.331H75.5262C78.26 24.331 79.7943 26.2002 79.7943 28.6815C79.7943 32.65 76.7136 34.9394 72.5801 34.9394Z" fill="#0600D1"/>
    <path d="M93.7043 30.0924L94.3774 27.6112C94.7174 26.3139 95.2835 24.1012 96.0775 21.5433C96.9076 18.9104 98.4195 17.2696 100.46 17.2696C101.442 17.2696 102.046 17.7282 102.046 18.4901C102.008 19.3288 101.328 19.8258 101.328 21.1614C101.328 22.7255 102.65 23.9478 104.35 23.9478C106.466 23.9478 108.164 22.2303 108.164 20.1309C108.164 16.8877 105.406 14.75 101.214 14.75C95.0574 14.75 91.0154 18.7186 88.4852 27.9913L78.2109 65.7328H84.0272L92.9053 33.0288H98.9545L94.9798 47.9109H100.796L105.556 30.0889H93.7026L93.7043 30.0924Z" fill="#0600D1"/>
    <path d="M123.158 30.0928H107.747L106.991 33.0308H114.451L102.875 47.9147H119.192L119.948 44.9766H111.549L123.158 30.0928Z" fill="#0600D1"/>
    <path d="M153.679 29.7869C151.594 29.7869 149.372 31.147 147.636 33.9752L148.654 30.092H142.838L138.078 47.9139H143.894L146.047 39.9001C146.915 36.6185 149.031 33.412 150.429 33.412C151.939 33.412 151.373 36.2733 153.979 36.2733C155.867 36.2733 157.001 34.5174 157.001 32.915C157.001 31.0458 155.527 29.7852 153.677 29.7852L153.679 29.7869Z" fill="#0600D1"/>
    <path d="M3.03125 82.5796C3.03125 81.4288 3.22628 80.3442 3.61806 79.3259C4.00984 78.3076 4.55695 77.4061 5.26457 76.6232C5.97046 75.8403 6.80752 75.2231 7.77402 74.7732C8.74053 74.3234 9.80023 74.0967 10.9531 74.0967C11.9956 74.0967 12.931 74.2623 13.7612 74.5954C14.5913 74.9284 15.3007 75.3922 15.8909 75.9885C16.4812 76.5849 16.9334 77.2876 17.2492 78.0984C17.5651 78.9092 17.7221 79.7932 17.7221 80.7487C17.7221 81.8995 17.5271 82.9841 17.1353 84.0024C16.7435 85.0207 16.1947 85.9222 15.4888 86.7051C14.7829 87.488 13.9458 88.1052 12.9793 88.5551C12.0128 89.0049 10.9462 89.2316 9.77952 89.2316C8.75088 89.2316 7.82062 89.066 6.99219 88.7329C6.16203 88.3999 5.45269 87.9361 4.86243 87.3398C4.27217 86.7434 3.81999 86.0407 3.50415 85.2299C3.18831 84.4191 3.03125 83.5351 3.03125 82.5796ZM14.3273 80.3965C14.3273 79.4811 14.1892 78.7052 13.9165 78.0687C13.6421 77.4323 13.2572 76.9458 12.7636 76.6128C12.27 76.2797 11.6935 76.1141 11.036 76.1141C10.3784 76.1141 9.81231 76.2885 9.25657 76.6337C8.70083 76.9807 8.21068 77.4619 7.78611 78.0792C7.36153 78.6964 7.02844 79.4166 6.78854 80.2413C6.54864 81.0661 6.42782 81.9641 6.42782 82.9335C6.42782 83.835 6.56417 84.6074 6.83859 85.2509C7.113 85.896 7.49961 86.3842 8.00184 86.7173C8.50235 87.0503 9.07535 87.216 9.72084 87.216C10.3663 87.216 10.9445 87.0433 11.5002 86.6963C12.056 86.3494 12.5461 85.8681 12.9707 85.2509C13.3953 84.6336 13.7284 83.9135 13.9683 83.0887C14.2082 82.264 14.329 81.3677 14.329 80.3965H14.3273Z" fill="#0600D1"/>
    <path d="M25.1533 85.7181C24.9479 86.3423 24.6493 86.9177 24.2576 87.4443C23.8675 87.9709 23.4101 88.3981 22.8889 88.7224C22.3677 89.0484 21.8189 89.2106 21.2424 89.2106C20.666 89.2106 20.1171 89.0659 19.6373 88.7747C19.1575 88.4835 18.8141 88.0371 18.6087 87.4338C18.4033 86.8305 18.424 86.065 18.6708 85.1374L20.2345 79.2334H23.4032L21.7567 85.4495C21.6048 86.0319 21.6256 86.4783 21.8189 86.7904C22.0104 87.1025 22.3194 87.2577 22.7457 87.2577C23.2255 87.2577 23.6638 87.0153 24.0625 86.5306C24.4595 86.0459 24.7546 85.4216 24.9479 84.6597L26.389 79.2334H29.5578L26.9862 88.9421H23.8796L24.7857 85.5542L25.1567 85.7198L25.1533 85.7181Z" fill="#0600D1"/>
    <path d="M37.8892 79.2332L37.4784 80.8338H30.4609L30.8717 79.2332H37.8875H37.8892ZM34.7722 88.9924C34.3131 89.1092 33.8282 89.1685 33.3208 89.1685C32.7857 89.1685 32.2852 89.0674 31.8192 88.8669C31.3532 88.6663 31.0132 88.3333 30.8009 87.8695C30.5887 87.4057 30.5852 86.778 30.7906 85.9881L33.1361 77.0083L36.4084 76.6543L33.8782 86.1537C33.7816 86.5426 33.7988 86.8529 33.93 87.0901C34.0594 87.3255 34.3235 87.444 34.7222 87.444C34.8723 87.444 35.038 87.4196 35.2158 87.3708C35.3936 87.322 35.5731 87.2488 35.7508 87.1529L36.039 88.4623C35.6542 88.6977 35.2331 88.8756 34.774 88.9924H34.7722Z" fill="#0600D1"/>
    <path d="M39.2176 88.6911C38.7033 88.372 38.2977 87.9152 38.0043 87.3189C37.7092 86.7225 37.5625 86.0164 37.5625 85.1986C37.5625 84.4924 37.6781 83.774 37.9129 83.0469C38.1459 82.3198 38.4859 81.6502 38.9311 81.0417C39.3764 80.4314 39.9184 79.9397 40.5569 79.5666C41.1955 79.1917 41.9187 79.0051 42.7281 79.0051C43.277 79.0051 43.7913 79.1062 44.2711 79.3068C44.7509 79.5073 45.1461 79.8438 45.4533 80.3146C45.7623 80.7854 45.9159 81.4305 45.9159 82.2483C45.7105 82.9283 45.5051 83.6031 45.298 84.2744C45.0926 84.9475 44.8872 85.6153 44.6801 86.2796C44.3919 86.9597 44.0519 87.5142 43.6618 87.9431C43.2718 88.372 42.8489 88.6841 42.3967 88.8794C41.9446 89.0747 41.4699 89.1706 40.9763 89.1706C40.3188 89.1706 39.732 89.0102 39.2176 88.6929V88.6911ZM43.3529 86.9963C43.6894 86.7121 43.9777 86.3354 44.2176 85.8629C44.4575 85.3921 44.6421 84.883 44.7733 84.3355C44.9028 83.788 44.9683 83.2509 44.9683 82.7243C44.9683 82.2675 44.8959 81.8891 44.7526 81.591C44.6094 81.2928 44.423 81.0713 44.1969 80.9266C43.9708 80.7819 43.7205 80.7087 43.4461 80.7087C43.0353 80.7087 42.6608 80.8516 42.3243 81.1341C41.9877 81.4183 41.6995 81.7932 41.4596 82.257C41.2197 82.7208 41.035 83.23 40.9038 83.7845C40.7727 84.339 40.7088 84.8795 40.7088 85.4061C40.7088 85.8629 40.7813 86.2413 40.9246 86.5395C41.0678 86.8376 41.2577 87.0591 41.4906 87.2055C41.7236 87.3502 41.9704 87.4235 42.2311 87.4235C42.6418 87.4235 43.0163 87.2822 43.3529 86.998V86.9963ZM45.3377 82.475L45.2963 82.3303L47.3742 74.3896H50.543L46.7167 88.9422H43.6308L45.3394 82.4767L45.3377 82.475Z" fill="#0600D1"/>
    <path d="M49.8753 82.5378C50.129 81.8595 50.4932 81.2492 50.9661 80.7087C51.439 80.1682 52.0155 79.7392 52.6937 79.4201C53.372 79.1011 54.1314 78.9424 54.9667 78.9424C55.9125 78.9424 56.7461 79.129 57.4676 79.5038C58.1873 79.8787 58.7534 80.4053 59.1659 81.0836C59.5766 81.7636 59.7837 82.5674 59.7837 83.4951C59.7837 84.2152 59.656 84.9196 59.4023 85.6049C59.1486 86.2902 58.7844 86.9039 58.3115 87.4445C57.8386 87.985 57.2656 88.4139 56.5925 88.733C55.9212 89.0521 55.1583 89.2108 54.3092 89.2108C53.3755 89.2108 52.547 89.0242 51.8187 88.6493C51.0921 88.2744 50.5225 87.7444 50.1101 87.0591C49.6993 86.3738 49.4922 85.5735 49.4922 84.6581C49.4922 83.924 49.6182 83.2161 49.8736 82.5378H49.8753ZM56.5011 81.6852C56.3699 81.3242 56.1852 81.0574 55.9453 80.8848C55.7054 80.7122 55.4207 80.625 55.091 80.625C54.5698 80.625 54.121 80.843 53.7431 81.2789C53.3651 81.7148 53.0769 82.2728 52.8784 82.9528C52.6799 83.6328 52.5798 84.346 52.5798 85.094C52.5798 85.6485 52.6454 86.1053 52.7748 86.4663C52.9043 86.8272 53.0907 87.094 53.3306 87.2666C53.5705 87.441 53.8553 87.5264 54.1849 87.5264C54.7061 87.5264 55.1549 87.3084 55.5328 86.8725C55.9108 86.4366 56.1973 85.8752 56.3975 85.1882C56.596 84.5029 56.6961 83.7915 56.6961 83.0574C56.6961 82.5029 56.6305 82.0461 56.5011 81.6852Z" fill="#0600D1"/>
    <path d="M70.051 82.393H69.0224L75.422 74.3896H77.9522L69.9267 84.264H66.9841L64 74.3896H67.8073L70.051 82.393ZM67.2533 82.3512H70.5256L68.7773 88.9405H65.505L67.2533 82.3512Z" fill="#0600D1"/>
    <path d="M76.2199 88.6698C75.4795 88.3228 74.9099 87.8102 74.5112 87.1319C74.1125 86.4536 73.9141 85.6219 73.9141 84.6368C73.9141 83.8608 74.047 83.1302 74.3145 82.4432C74.582 81.7562 74.9548 81.1547 75.4363 80.6351C75.9161 80.1154 76.4718 79.7074 77.1035 79.4093C77.7335 79.1111 78.4135 78.9629 79.1401 78.9629C80.0721 78.9629 80.8539 79.1373 81.4856 79.4825C82.1173 79.8295 82.5971 80.2968 82.9267 80.8861C83.2564 81.4755 83.4272 82.1363 83.441 82.8722C83.441 83.0936 83.4307 83.3325 83.41 83.5888C83.3893 83.8451 83.3444 84.091 83.2771 84.3264H75.8281L76.0956 82.8722H82.6799L80.5191 83.8068C80.5743 83.5714 80.6157 83.3569 80.6433 83.1616C80.671 82.9681 80.6848 82.7867 80.6848 82.6211C80.6848 82.1642 80.633 81.7859 80.5312 81.4877C80.4276 81.1895 80.2706 80.9681 80.0583 80.8216C79.846 80.6769 79.575 80.6037 79.2454 80.6037C78.8208 80.6037 78.4359 80.7693 78.0925 81.1024C77.749 81.4354 77.478 81.8922 77.2796 82.4746C77.0811 83.057 76.981 83.7144 76.981 84.4502C76.981 85.1442 77.0811 85.7108 77.2796 86.1555C77.478 86.5984 77.7594 86.9279 78.1235 87.1424C78.486 87.3569 78.9226 87.465 79.43 87.465C79.896 87.465 80.3379 87.3848 80.7573 87.2261C81.1749 87.0674 81.5494 86.8704 81.8791 86.6332L82.5177 88.0892C82.0793 88.4362 81.5374 88.7064 80.8919 88.9C80.2464 89.0935 79.5612 89.1912 78.8346 89.1912C77.8336 89.1912 76.962 89.0168 76.2216 88.6716L76.2199 88.6698Z" fill="#0600D1"/>
    <path d="M85.2226 80.6145C85.5868 80.0949 86.0942 79.6921 86.7449 79.4079C87.3955 79.1237 88.1411 78.9824 88.9782 78.9824C89.7462 78.9824 90.5211 79.1271 91.303 79.4183C92.0848 79.7095 92.7027 80.1175 93.1549 80.6441L91.8587 82.0792C91.5015 81.6084 91.0527 81.2509 90.5108 81.0085C89.9689 80.7662 89.458 80.6441 88.9782 80.6441C88.7176 80.6441 88.4777 80.686 88.2585 80.7679C88.0393 80.8516 87.8667 80.965 87.7442 81.1114C87.6199 81.2561 87.5595 81.441 87.5595 81.6624C87.5595 81.9118 87.6751 82.1158 87.9099 82.2762C88.1429 82.4366 88.4414 82.5813 88.8056 82.7121C89.1698 82.8446 89.5598 82.9824 89.9792 83.1271C90.3969 83.2718 90.7887 83.4532 91.1528 83.6676C91.5153 83.8821 91.8138 84.1524 92.0486 84.4784C92.2816 84.8045 92.3989 85.216 92.3989 85.7147C92.3989 86.3529 92.2177 86.9352 91.8535 87.4601C91.4894 87.9867 90.9751 88.4051 90.3106 88.7173C89.6444 89.0294 88.8453 89.1846 87.9133 89.1846C86.9813 89.1846 86.1408 89.0311 85.3521 88.7277C84.5633 88.4226 83.9558 88.0215 83.5312 87.5211L84.8895 86.107C85.2865 86.6894 85.768 87.08 86.3307 87.2822C86.8933 87.4827 87.3869 87.5839 87.8115 87.5839C88.2084 87.5839 88.5277 87.5316 88.7676 87.4287C89.0075 87.3241 89.1853 87.1898 89.3027 87.0224C89.4183 86.8568 89.477 86.6824 89.477 86.5028C89.477 86.2535 89.3596 86.0529 89.1266 85.8995C88.8936 85.7478 88.595 85.6048 88.2309 85.4741C87.8667 85.3433 87.4836 85.2038 87.078 85.0591C86.6724 84.9143 86.2892 84.733 85.9251 84.5185C85.5609 84.3041 85.2641 84.0303 85.0293 83.6973C84.7963 83.3642 84.679 82.9492 84.679 82.4506C84.679 81.7444 84.8602 81.1306 85.2244 80.611L85.2226 80.6145Z" fill="#0600D1"/>
    <path d="M101.631 79.2332L101.221 80.8338H94.2031L94.6139 79.2332H101.63H101.631ZM98.5144 88.9924C98.0553 89.1092 97.5704 89.1685 97.0629 89.1685C96.5279 89.1685 96.0274 89.0674 95.5614 88.8669C95.0954 88.6663 94.7554 88.3333 94.5431 87.8695C94.3308 87.4057 94.3274 86.778 94.5328 85.9881L96.8783 77.0083L100.151 76.6543L97.6204 86.1537C97.5238 86.5426 97.541 86.8529 97.6722 87.0901C97.8016 87.3255 98.0657 87.444 98.4644 87.444C98.6145 87.444 98.7802 87.4196 98.958 87.3708C99.1357 87.322 99.3152 87.2488 99.493 87.1529L99.7812 88.4623C99.3964 88.6977 98.9752 88.8756 98.5161 88.9924H98.5144Z" fill="#0600D1"/>
    <path d="M103.65 88.6698C102.909 88.3228 102.34 87.8102 101.941 87.1319C101.542 86.4536 101.344 85.6219 101.344 84.6368C101.344 83.8608 101.477 83.1302 101.744 82.4432C102.012 81.7562 102.384 81.1547 102.866 80.6351C103.346 80.1154 103.902 79.7074 104.533 79.4093C105.163 79.1111 105.843 78.9629 106.57 78.9629C107.502 78.9629 108.284 79.1373 108.915 79.4825C109.547 79.8295 110.027 80.2968 110.356 80.8861C110.686 81.4755 110.857 82.1363 110.871 82.8722C110.871 83.0936 110.86 83.3325 110.84 83.5888C110.819 83.8451 110.774 84.091 110.707 84.3264H103.258L103.525 82.8722H110.11L107.949 83.8068C108.004 83.5714 108.045 83.3569 108.073 83.1616C108.101 82.9681 108.114 82.7867 108.114 82.6211C108.114 82.1642 108.063 81.7859 107.961 81.4877C107.857 81.1895 107.7 80.9681 107.488 80.8216C107.276 80.6769 107.005 80.6037 106.675 80.6037C106.25 80.6037 105.866 80.7693 105.522 81.1024C105.179 81.4354 104.908 81.8922 104.709 82.4746C104.511 83.057 104.411 83.7144 104.411 84.4502C104.411 85.1442 104.511 85.7108 104.709 86.1555C104.908 86.5984 105.189 86.9279 105.553 87.1424C105.916 87.3569 106.352 87.465 106.86 87.465C107.326 87.465 107.768 87.3848 108.187 87.2261C108.605 87.0674 108.979 86.8704 109.309 86.6332L109.947 88.0892C109.509 88.4362 108.967 88.7064 108.322 88.9C107.676 89.0935 106.991 89.1912 106.264 89.1912C105.263 89.1912 104.392 89.0168 103.651 88.6716L103.65 88.6698Z" fill="#0600D1"/>
    <path d="M120.586 79.3257C120.861 79.5 121.063 79.718 121.194 79.9813C121.323 80.2446 121.389 80.5009 121.389 80.7502C121.389 81.0135 121.32 81.2873 121.184 81.5715C121.047 81.8557 120.851 82.0911 120.597 82.2777C120.343 82.4642 120.031 82.5584 119.661 82.5584C119.318 82.5584 119.064 82.4817 118.9 82.33C118.736 82.1783 118.609 82.0004 118.519 81.7999C118.429 81.5994 118.338 81.4233 118.241 81.2698C118.144 81.1181 118.001 81.0414 117.81 81.0414C117.563 81.0414 117.288 81.2105 116.986 81.5506C116.684 81.8906 116.399 82.33 116.132 82.8705C115.864 83.411 115.649 83.9795 115.483 84.5758L114.309 88.9419H111.141L113.733 79.2332H116.902L116.161 81.9778L115.585 82.8723C115.914 82.0126 116.294 81.303 116.727 80.7415C117.161 80.18 117.616 79.7616 118.096 79.4843C118.576 79.2071 119.049 79.0693 119.516 79.0693C119.955 79.0693 120.312 79.1565 120.586 79.3291V79.3257Z" fill="#0600D1"/>
    <path d="M123.1 88.6911C122.586 88.372 122.181 87.9152 121.887 87.3189C121.592 86.7225 121.445 86.0164 121.445 85.1986C121.445 84.4924 121.561 83.774 121.796 83.0469C122.029 82.3198 122.369 81.6502 122.814 81.0417C123.259 80.4314 123.801 79.9397 124.44 79.5666C125.078 79.1917 125.801 79.0051 126.611 79.0051C127.16 79.0051 127.674 79.1062 128.154 79.3068C128.634 79.5073 129.029 79.8438 129.336 80.3146C129.645 80.7854 129.799 81.4305 129.799 82.2483C129.593 82.9283 129.388 83.6031 129.181 84.2744C128.975 84.9475 128.77 85.6153 128.563 86.2796C128.275 86.9597 127.935 87.5142 127.545 87.9431C127.155 88.372 126.732 88.6841 126.28 88.8794C125.827 89.0747 125.353 89.1706 124.859 89.1706C124.202 89.1706 123.615 89.0102 123.1 88.6929V88.6911ZM127.236 86.9963C127.572 86.7121 127.86 86.3354 128.1 85.8629C128.34 85.3921 128.525 84.883 128.656 84.3355C128.786 83.788 128.851 83.2509 128.851 82.7243C128.851 82.2675 128.779 81.8891 128.635 81.591C128.492 81.2928 128.306 81.0713 128.08 80.9266C127.854 80.7819 127.603 80.7087 127.329 80.7087C126.918 80.7087 126.544 80.8516 126.207 81.1341C125.871 81.4183 125.582 81.7932 125.342 82.257C125.102 82.7208 124.918 83.23 124.787 83.7845C124.655 84.339 124.592 84.8795 124.592 85.4061C124.592 85.8629 124.664 86.2413 124.807 86.5395C124.951 86.8376 125.14 87.0591 125.373 87.2055C125.606 87.3502 125.853 87.4235 126.114 87.4235C126.525 87.4235 126.899 87.2822 127.236 86.998V86.9963ZM129.221 82.475L129.179 82.3303L131.257 74.3896H134.426L130.599 88.9422H127.514L129.222 82.4767L129.221 82.475Z" fill="#0600D1"/>
    <path d="M135.015 88.6909C134.5 88.3718 134.095 87.915 133.801 87.3186C133.506 86.7223 133.359 86.0161 133.359 85.1984C133.359 84.4922 133.475 83.7738 133.71 83.0467C133.943 82.3196 134.283 81.65 134.728 81.0415C135.173 80.4312 135.715 79.9395 136.354 79.5663C136.992 79.1915 137.716 79.0049 138.525 79.0049C139.074 79.0049 139.588 79.106 140.068 79.3065C140.548 79.5071 140.943 79.8436 141.25 80.3144C141.559 80.7852 141.713 81.4303 141.713 82.2481C141.507 82.9281 141.302 83.6029 141.095 84.2742C140.889 84.9473 140.684 85.6151 140.477 86.2794C140.189 86.9594 139.849 87.5139 139.459 87.9429C139.069 88.3718 138.646 88.6839 138.194 88.8792C137.741 89.0745 137.267 89.1704 136.773 89.1704C136.116 89.1704 135.529 89.01 135.015 88.6926V88.6909ZM139.15 86.9961C139.486 86.7118 139.775 86.3352 140.014 85.8627C140.254 85.3919 140.439 84.8828 140.57 84.3352C140.7 83.7877 140.765 83.2507 140.765 82.7241C140.765 82.2673 140.693 81.8889 140.549 81.5907C140.406 81.2926 140.22 81.0711 139.994 80.9264C139.768 80.7817 139.517 80.7084 139.243 80.7084C138.832 80.7084 138.458 80.8514 138.121 81.1339C137.785 81.4181 137.496 81.793 137.256 82.2568C137.017 82.7206 136.832 83.2298 136.701 83.7842C136.57 84.3387 136.506 84.8793 136.506 85.4058C136.506 85.8627 136.578 86.2411 136.721 86.5392C136.865 86.8374 137.055 87.0588 137.288 87.2053C137.521 87.35 137.767 87.4233 138.028 87.4233C138.439 87.4233 138.813 87.282 139.15 86.9978V86.9961ZM141.135 82.4748L141.093 82.33L141.916 79.2333H145.085L142.514 88.942H139.428L141.136 82.4765L141.135 82.4748Z" fill="#0600D1"/>
    <path d="M143.477 93.0674C143.126 92.9348 142.836 92.7866 142.602 92.621L143.446 90.9366C143.637 91.1023 143.87 91.2452 144.145 91.3621C144.419 91.4789 144.7 91.5382 144.988 91.5382C145.277 91.5382 145.537 91.4928 145.812 91.4039C146.086 91.3132 146.378 91.1336 146.687 90.8634C146.996 90.5931 147.327 90.1799 147.684 89.6271L149.269 87.1529L149.536 87.0082L154.7 79.2332H157.004L149.433 90.3961C148.72 91.4353 147.988 92.1729 147.241 92.6105C146.493 93.0464 145.674 93.2644 144.781 93.2644C144.26 93.2644 143.825 93.1981 143.475 93.0674H143.477ZM147.89 91.1232L146.1 79.2314H149.453L150.503 88.1502L147.89 91.1232Z" fill="#0600D1"/>
  </g>
</svg>
