<svg width="56" height="21" viewBox="0 0 56 21" fill="none" xmlns="http://www.w3.org/2000/svg">
  <path fill-rule="evenodd" clip-rule="evenodd" d="M46.7605 10.3246C47.3664 10.3246 47.6761 10.6706 47.6761 11.4344C47.6761 11.5067 47.6709 11.582 47.6612 11.6611H45.3372C45.5894 10.8581 46.1293 10.3246 46.7605 10.3246ZM46.774 14.3104C45.7372 14.3223 45.185 13.7376 45.185 12.6993C45.185 12.6308 45.1872 12.5633 45.191 12.4965H49.2647C49.3456 12.222 49.3994 11.9237 49.3994 11.6492C49.3994 10.3842 48.5241 9.4176 46.7333 9.4176C44.9022 9.4176 43.2733 11.0167 43.2733 12.6993C43.2733 14.3104 44.4582 15.2889 46.4374 15.2889C47.3123 15.2889 48.1742 15.0264 48.78 14.6206L48.4029 13.7853C47.9316 14.1075 47.353 14.2984 46.774 14.3104Z" fill="#FAFAFA"/>
  <path fill-rule="evenodd" clip-rule="evenodd" d="M25.9048 11.0883H25.1681L26.1841 7.77081H26.955C27.9292 7.77081 28.4764 8.35554 28.4764 9.13121C28.4764 10.3723 27.3781 11.0883 25.9048 11.0883ZM30.6441 9.05962C30.6441 7.74693 29.4862 6.79224 27.7359 6.79224H24.343L21.7848 15.1457H23.9256L24.8684 12.0669H26.7261C28.8534 12.0669 30.6441 10.8497 30.6441 9.05962Z" fill="#FAFAFA"/>
  <path fill-rule="evenodd" clip-rule="evenodd" d="M33.4334 9.57269L33.6735 8.79698C33.7947 8.39124 33.9966 7.6991 34.2794 6.89956C34.5756 6.07614 35.1141 5.563 35.8412 5.563C36.1912 5.563 36.4067 5.70621 36.4067 5.94486C36.3932 6.20742 36.1508 6.36254 36.1508 6.78022C36.1508 7.26949 36.6221 7.65139 37.228 7.65139C37.9819 7.65139 38.5878 7.11437 38.5878 6.45801C38.5878 5.44369 37.6051 4.77539 36.1105 4.77539C33.9158 4.77539 32.4752 6.01649 31.5731 8.91633L27.9109 20.7186H29.9843L33.1491 10.4916H35.3057L33.8889 15.1457H35.9624L37.6588 9.57269H33.4334Z" fill="#FAFAFA"/>
  <path fill-rule="evenodd" clip-rule="evenodd" d="M43.933 9.57275H38.4397L38.1703 10.4916H40.8293L36.7029 15.1457H42.5194L42.7888 14.2268H39.7951L43.933 9.57275Z" fill="#FAFAFA"/>
  <path fill-rule="evenodd" clip-rule="evenodd" d="M54.8118 9.47729C54.069 9.47729 53.2773 9.90284 52.658 10.7871L53.0214 9.57276H50.9478L49.2513 15.1457H51.3249L52.0924 12.6397C52.402 11.6134 53.156 10.611 53.6541 10.611C54.1925 10.611 53.9906 11.506 54.9196 11.506C55.593 11.506 55.9967 10.957 55.9967 10.4558C55.9967 9.8711 55.4718 9.47729 54.8118 9.47729Z" fill="#FAFAFA"/>
  <path fill-rule="evenodd" clip-rule="evenodd" d="M1.03247 8.61004L0.386436 10.7443C0.151505 11.4991 0.0340576 11.8896 0.0340576 12.2019C0.0340576 14.9348 8.10959 18.2663 15.8034 18.6828L16.8899 15.143C8.96119 14.6485 0.856299 11.2389 1.06183 8.61004H1.03247ZM19.5916 10.5361L20.2376 8.40184C20.4725 7.64704 20.59 7.25661 20.59 6.94428C20.59 4.21137 12.5144 0.879833 4.82066 0.463379L3.73412 4.00314C11.6628 4.49767 19.7678 7.90731 19.5622 10.5361H19.5916ZM18.182 9.28677C16.5963 9.80735 13.8946 9.93747 10.312 9.5731L9.25484 13.1128C13.3367 13.6074 17.6241 13.243 18.6225 11.9676C19.063 11.395 19.1805 10.1977 18.182 9.28677ZM2.44202 9.8594C4.02778 9.33885 6.7294 9.20869 10.312 9.5731L11.3692 6.0333C7.28738 5.53881 2.99997 5.90318 2.00156 7.17854C1.56106 7.75114 1.44361 8.94842 2.44202 9.8594Z" fill="#FAFAFA"/>
</svg>
