<svg width="139" height="40" viewBox="0 0 139 40" fill="none" xmlns="http://www.w3.org/2000/svg">
  <path d="M82.6646 24.6817C80.8264 24.7019 79.8595 23.5973 79.8595 21.6361C79.8595 21.5068 79.8595 21.3775 79.8692 21.2482H87.0776C87.2241 20.7308 87.319 20.1637 87.319 19.6453C87.319 17.2569 85.7751 15.425 82.6014 15.425C79.3657 15.425 76.4863 18.4505 76.4863 21.6254C76.4863 24.671 78.577 26.5219 82.0863 26.5219C83.6309 26.5219 85.1548 26.0248 86.2256 25.2584L85.5646 23.6756C84.7126 24.2937 83.6948 24.6628 82.6646 24.6817ZM82.6433 17.1478C83.7148 17.1478 84.2621 17.8051 84.2621 19.2478C84.2621 19.3866 84.2505 19.5266 84.2408 19.6761H80.1325C80.5733 18.1539 81.5299 17.1478 82.6433 17.1478Z" fill="#0000C9"/>
  <path d="M54.1375 14.7591C54.1375 12.2807 52.0884 10.4701 48.9897 10.4701H42.9902L38.4624 26.2641H42.245L43.9146 20.4423H47.2037C50.9649 20.4423 54.1375 18.1429 54.1375 14.7591ZM45.7533 18.5914H44.4507L46.248 12.321H47.6132C49.3366 12.321 50.3024 13.4255 50.3024 14.8885C50.3024 17.2376 48.3597 18.5914 45.7533 18.5914Z" fill="#0000C9"/>
  <path d="M49.3521 36.7103H52.9843V36.7328L58.5668 17.466H62.3806L59.8793 26.2635H63.5467L66.5515 15.7243H59.0703L59.4911 14.2614C59.7015 13.495 60.0585 12.1816 60.5632 10.6783C61.088 9.12528 62.0437 8.15001 63.3263 8.15001C63.9462 8.15001 64.3245 8.41816 64.3245 8.87611C64.3032 9.37324 63.8723 9.66274 63.8723 10.4589C63.8723 11.3842 64.703 12.1009 65.7738 12.1009C67.1073 12.1009 68.18 11.0853 68.18 9.84189C68.18 7.92103 66.4463 6.65747 63.7985 6.65747C59.9219 6.65747 57.3681 9.00665 55.7712 14.4797" fill="#0000C9"/>
  <path d="M77.6448 15.7238H67.9268L67.453 17.4655H72.15L64.8577 26.2631H75.1436L75.6167 24.5214H70.3214L77.6448 15.7238Z" fill="#0000C9"/>
  <path d="M96.8787 15.5471C95.5665 15.5471 94.1684 16.3539 93.0647 18.0256L93.7159 15.7263H90.0504L87.0452 26.256H90.7114L92.0668 21.5185C92.6129 19.5775 93.9477 17.6863 94.83 17.6863C95.7866 17.6863 95.4296 19.3782 97.0678 19.3782C98.2554 19.3782 98.9693 18.3436 98.9693 17.398C98.9803 16.2934 98.045 15.5471 96.8787 15.5471Z" fill="#0000C9"/>
  <path d="M2.9846 18.9632C6.05324 17.5917 11.3826 17.1918 18.1762 17.969L20.0988 11.2809C10.2854 10.0968 3.11987 11.4304 1.92248 15.6601L1.87363 15.8309C1.67072 16.83 2.08154 17.893 2.9846 18.9632Z" fill="#3D96F7"/>
  <path d="M33.3741 16.9777C30.3068 18.348 24.9748 18.7443 18.1775 17.9659L16.2549 24.654C26.0682 25.8381 33.2338 24.5045 34.4312 20.2748L34.4776 20.1134C34.6855 19.1121 34.2759 18.0478 33.3741 16.9777Z" fill="#0000C9"/>
  <path d="M8.46803 0.749023L6.54541 7.43706C18.0371 8.21891 29.7256 12.6503 33.3728 16.9785C34.7819 16.3497 35.7125 15.5144 36.0895 14.4941L34.4763 20.1155C34.465 20.1689 34.455 20.2235 34.44 20.2769L35.7425 15.7482C36.1634 14.3256 36.3626 13.5781 36.3626 12.992C36.3525 7.83454 22.0739 1.53564 8.46803 0.749023Z" fill="#3D96F7"/>
  <path d="M2.98472 18.9612C1.57816 19.59 0.646294 20.4229 0.266784 21.4409C0.0901803 22.1018 0 22.5502 0 22.9334C0 28.1087 14.2786 34.3981 27.8945 35.1848L29.8071 28.4967C18.3204 27.7148 6.63702 23.287 2.98472 18.9612Z" fill="#0000C9"/>
  <path d="M66.4246 35.0966C66.4246 35.6512 66.3304 36.1656 66.142 36.64C65.9572 37.1143 65.6939 37.5241 65.3521 37.8694C65.0138 38.2147 64.6057 38.4867 64.1279 38.6855C63.6501 38.8808 63.1199 38.9785 62.5375 38.9785C61.955 38.9785 61.4249 38.8808 60.9471 38.6855C60.4693 38.4867 60.0595 38.2147 59.7177 37.8694C59.3759 37.5241 59.1108 37.1143 58.9225 36.64C58.7376 36.1656 58.6452 35.6512 58.6452 35.0966C58.6452 34.5421 58.7376 34.0294 58.9225 33.5586C59.1108 33.0842 59.3759 32.6744 59.7177 32.3291C60.0595 31.9839 60.4693 31.7136 60.9471 31.5182C61.4249 31.3194 61.955 31.22 62.5375 31.22C63.1199 31.22 63.6501 31.3194 64.1279 31.5182C64.6057 31.7136 65.0138 31.9856 65.3521 32.3344C65.6939 32.6797 65.9572 33.0895 66.142 33.5638C66.3304 34.0346 66.4246 34.5456 66.4246 35.0966ZM64.8185 35.0966C64.8185 34.699 64.7661 34.3433 64.6615 34.0294C64.5569 33.712 64.4052 33.4435 64.2064 33.2237C64.011 33.0005 63.7721 32.8314 63.4896 32.7163C63.2106 32.5977 62.8932 32.5384 62.5375 32.5384C62.1817 32.5384 61.8626 32.5977 61.5801 32.7163C61.2976 32.8314 61.057 33.0005 60.8582 33.2237C60.6628 33.4435 60.5129 33.712 60.4082 34.0294C60.3036 34.3433 60.2513 34.699 60.2513 35.0966C60.2513 35.4977 60.3036 35.857 60.4082 36.1744C60.5129 36.4882 60.6628 36.7551 60.8582 36.9748C61.057 37.1945 61.2976 37.3637 61.5801 37.4822C61.8626 37.5973 62.1817 37.6549 62.5375 37.6549C62.8932 37.6549 63.2106 37.5973 63.4896 37.4822C63.7721 37.3637 64.011 37.1945 64.2064 36.9748C64.4052 36.7551 64.5569 36.4882 64.6615 36.1744C64.7661 35.857 64.8185 35.4977 64.8185 35.0966ZM72.0452 33.501V38.8948H71.1559C70.971 38.8948 70.8524 38.8111 70.8001 38.6437L70.7059 38.267C70.5978 38.3716 70.4862 38.4675 70.3711 38.5547C70.256 38.6419 70.1322 38.7169 69.9997 38.7797C69.8706 38.8425 69.7294 38.8913 69.5759 38.9262C69.426 38.961 69.262 38.9785 69.0842 38.9785C68.7912 38.9785 68.5296 38.9279 68.2994 38.8268C68.0727 38.7256 67.8826 38.5844 67.7292 38.403C67.5757 38.2216 67.4589 38.0054 67.3787 37.7543C67.2984 37.5032 67.2583 37.2276 67.2583 36.9277V33.501H68.7022V36.9277C68.7022 37.2276 68.7703 37.4613 68.9063 37.6287C69.0458 37.7927 69.2516 37.8746 69.5236 37.8746C69.7259 37.8746 69.916 37.831 70.0938 37.7438C70.2717 37.6531 70.4409 37.5311 70.6013 37.3776V33.501H72.0452ZM75.0995 38.9785C74.8553 38.9785 74.6391 38.9436 74.4508 38.8738C74.2624 38.8006 74.1037 38.6977 73.9747 38.5652C73.8457 38.4327 73.748 38.2722 73.6817 38.0839C73.6155 37.8955 73.5823 37.6828 73.5823 37.4456V34.5369H73.0749C72.9981 34.5369 72.9319 34.5125 72.8761 34.4636C72.8238 34.4148 72.7976 34.3416 72.7976 34.2439V33.6789L73.6608 33.5219L73.9538 32.1251C73.9921 31.9682 74.0985 31.8897 74.2729 31.8897H75.0262V33.5324H76.4178V34.5369H75.0262V37.3515C75.0262 37.5014 75.0611 37.62 75.1309 37.7072C75.2041 37.7944 75.307 37.838 75.4395 37.838C75.5093 37.838 75.5686 37.831 75.6174 37.8171C75.6662 37.7996 75.7081 37.7822 75.743 37.7648C75.7779 37.7438 75.8092 37.7264 75.8371 37.7124C75.8685 37.695 75.8999 37.6863 75.9313 37.6863C75.9732 37.6863 76.008 37.6967 76.0359 37.7177C76.0638 37.7351 76.0917 37.7665 76.1196 37.8118L76.5539 38.5024C76.3551 38.6594 76.1301 38.7779 75.879 38.8582C75.6279 38.9384 75.368 38.9785 75.0995 38.9785ZM80.5239 34.9031C80.3879 34.7461 80.2397 34.6363 80.0792 34.5735C79.9223 34.5107 79.7549 34.4793 79.577 34.4793C79.4026 34.4793 79.2439 34.5125 79.1009 34.5787C78.9579 34.645 78.8341 34.7496 78.7295 34.8926C78.6283 35.0321 78.5499 35.2117 78.494 35.4315C78.4382 35.6512 78.4103 35.9128 78.4103 36.2162C78.4103 36.5162 78.433 36.7708 78.4784 36.98C78.5237 37.1893 78.5882 37.3584 78.6719 37.4875C78.7591 37.6165 78.8637 37.7107 78.9858 37.77C79.1079 37.8258 79.2439 37.8537 79.3939 37.8537C79.6485 37.8537 79.8612 37.8031 80.0321 37.702C80.2065 37.6008 80.3704 37.4578 80.5239 37.273V34.9031ZM81.9678 31.0945V38.8948H81.0784C80.8936 38.8948 80.775 38.8111 80.7227 38.6437L80.6024 38.1728C80.4943 38.2914 80.3792 38.3995 80.2571 38.4972C80.1385 38.5948 80.0095 38.6803 79.87 38.7535C79.7304 38.8233 79.5805 38.8773 79.42 38.9157C79.2596 38.9541 79.0852 38.9732 78.8969 38.9732C78.6074 38.9732 78.3423 38.9122 78.1017 38.7901C77.861 38.6681 77.6518 38.4902 77.4739 38.2565C77.2995 38.0194 77.1635 37.7299 77.0658 37.3881C76.9682 37.0463 76.9193 36.6557 76.9193 36.2162C76.9193 35.8151 76.9734 35.4419 77.0815 35.0966C77.1931 34.7514 77.3501 34.4532 77.5524 34.202C77.7547 33.9509 77.9988 33.7539 78.2848 33.6109C78.5708 33.4679 78.8882 33.3964 79.2369 33.3964C79.5299 33.3964 79.7758 33.44 79.9746 33.5272C80.1769 33.6144 80.36 33.733 80.5239 33.8829V31.0945H81.9678ZM85.6016 33.4173C86.0061 33.4173 86.3741 33.4818 86.7054 33.6109C87.0368 33.7399 87.321 33.9248 87.5582 34.1654C87.7953 34.4026 87.9784 34.6921 88.1075 35.0339C88.2365 35.3757 88.3011 35.7611 88.3011 36.19C88.3011 36.619 88.2365 37.0062 88.1075 37.3515C87.9784 37.6933 87.7953 37.9845 87.5582 38.2251C87.321 38.4658 87.0368 38.6506 86.7054 38.7797C86.3741 38.9087 86.0061 38.9732 85.6016 38.9732C85.1935 38.9732 84.8221 38.9087 84.4872 38.7797C84.1559 38.6506 83.8716 38.4658 83.6345 38.2251C83.3973 37.9845 83.2125 37.6933 83.0799 37.3515C82.9509 37.0062 82.8864 36.619 82.8864 36.19C82.8864 35.7611 82.9509 35.3757 83.0799 35.0339C83.2125 34.6921 83.3973 34.4026 83.6345 34.1654C83.8716 33.9248 84.1559 33.7399 84.4872 33.6109C84.8221 33.4818 85.1935 33.4173 85.6016 33.4173ZM85.6016 37.8903C86.0131 37.8903 86.3183 37.7491 86.5171 37.4666C86.7159 37.1806 86.8153 36.7568 86.8153 36.1953C86.8153 35.6372 86.7159 35.217 86.5171 34.9345C86.3183 34.6485 86.0131 34.5055 85.6016 34.5055C85.1795 34.5055 84.8691 34.6485 84.6703 34.9345C84.4715 35.217 84.3721 35.6372 84.3721 36.1953C84.3721 36.7568 84.4715 37.1806 84.6703 37.4666C84.8691 37.7491 85.1795 37.8903 85.6016 37.8903ZM96.4263 33.501L93.5176 40.3439C93.4723 40.4416 93.4164 40.5148 93.3502 40.5636C93.2874 40.6125 93.1863 40.6369 93.0467 40.6369H91.9743L92.9944 38.4606L90.8286 33.501H92.0946C92.2097 33.501 92.2986 33.5272 92.3614 33.5795C92.4242 33.6318 92.4695 33.6928 92.4974 33.7626L93.5228 36.3418C93.5612 36.4429 93.5943 36.5458 93.6222 36.6504C93.6536 36.7516 93.6833 36.8527 93.7112 36.9539C93.7739 36.7481 93.8454 36.5423 93.9257 36.3365L94.8778 33.7626C94.9057 33.6859 94.9563 33.6231 95.0295 33.5743C95.1028 33.5254 95.183 33.501 95.2702 33.501H96.4263ZM100.241 35.5623C100.241 35.4123 100.221 35.2693 100.179 35.1333C100.14 34.9972 100.078 34.8769 99.9904 34.7723C99.9032 34.6677 99.7933 34.5857 99.6608 34.5264C99.5282 34.4636 99.3695 34.4322 99.1847 34.4322C98.8394 34.4322 98.5691 34.5299 98.3738 34.7252C98.1785 34.9205 98.0512 35.1995 97.9919 35.5623H100.241ZM97.971 36.4202C98.0163 36.926 98.1593 37.2957 98.4 37.5293C98.6441 37.763 98.9615 37.8798 99.3521 37.8798C99.5509 37.8798 99.7218 37.8572 99.8648 37.8118C100.011 37.763 100.139 37.7107 100.247 37.6549C100.358 37.5956 100.458 37.5433 100.545 37.4979C100.636 37.4491 100.725 37.4247 100.812 37.4247C100.923 37.4247 101.011 37.4666 101.073 37.5503L101.492 38.0734C101.338 38.2513 101.169 38.3995 100.984 38.5181C100.8 38.6332 100.608 38.7256 100.409 38.7954C100.21 38.8616 100.01 38.907 99.8073 38.9314C99.605 38.9593 99.4097 38.9732 99.2213 38.9732C98.8446 38.9732 98.4924 38.9122 98.1645 38.7901C97.8402 38.6646 97.5559 38.4815 97.3118 38.2408C97.0711 37.9967 96.8811 37.695 96.7416 37.3358C96.602 36.9765 96.5323 36.5597 96.5323 36.0854C96.5323 35.7192 96.5916 35.3739 96.7102 35.0496C96.8322 34.7252 97.0066 34.4427 97.2333 34.202C97.46 33.9614 97.7356 33.7713 98.0599 33.6318C98.3843 33.4888 98.7505 33.4173 99.1585 33.4173C99.5038 33.4173 99.8212 33.4731 100.111 33.5847C100.404 33.6928 100.655 33.8515 100.864 34.0608C101.077 34.2701 101.241 34.5282 101.356 34.8351C101.474 35.1385 101.534 35.4855 101.534 35.8762C101.534 35.9843 101.528 36.0732 101.518 36.143C101.508 36.2127 101.49 36.2685 101.466 36.3104C101.441 36.3522 101.408 36.3819 101.366 36.3993C101.324 36.4133 101.27 36.4202 101.204 36.4202H97.971ZM105.783 34.6101C105.745 34.6694 105.705 34.713 105.663 34.7409C105.624 34.7653 105.57 34.7775 105.501 34.7775C105.431 34.7775 105.359 34.7601 105.286 34.7252C105.213 34.6903 105.131 34.6537 105.04 34.6153C104.95 34.5735 104.845 34.5351 104.726 34.5002C104.611 34.4654 104.477 34.4479 104.323 34.4479C104.09 34.4479 103.908 34.4968 103.779 34.5944C103.65 34.6886 103.586 34.8141 103.586 34.9711C103.586 35.0792 103.622 35.1699 103.696 35.2431C103.769 35.3164 103.865 35.3809 103.983 35.4367C104.106 35.489 104.243 35.5396 104.397 35.5884C104.55 35.6338 104.707 35.6843 104.868 35.7401C105.032 35.7959 105.19 35.8605 105.344 35.9337C105.497 36.0069 105.633 36.0994 105.752 36.211C105.874 36.3191 105.971 36.4516 106.045 36.6086C106.118 36.762 106.155 36.9486 106.155 37.1684C106.155 37.4299 106.106 37.6723 106.008 37.8955C105.914 38.1153 105.774 38.3054 105.59 38.4658C105.405 38.6262 105.175 38.7518 104.899 38.8425C104.623 38.9331 104.306 38.9785 103.947 38.9785C103.762 38.9785 103.579 38.961 103.398 38.9262C103.216 38.8948 103.044 38.8494 102.88 38.7901C102.716 38.7274 102.562 38.6559 102.419 38.5756C102.276 38.4954 102.152 38.4082 102.048 38.3141L102.383 37.7752C102.421 37.7124 102.468 37.6636 102.524 37.6287C102.583 37.5939 102.658 37.5764 102.749 37.5764C102.836 37.5764 102.916 37.5991 102.989 37.6444C103.063 37.6863 103.145 37.7334 103.235 37.7857C103.326 37.8345 103.432 37.8816 103.554 37.9269C103.68 37.9688 103.835 37.9897 104.02 37.9897C104.16 37.9897 104.28 37.974 104.381 37.9426C104.482 37.9112 104.564 37.8694 104.627 37.8171C104.69 37.7613 104.735 37.7002 104.763 37.634C104.794 37.5642 104.81 37.4927 104.81 37.4195C104.81 37.3009 104.772 37.205 104.695 37.1317C104.622 37.055 104.524 36.9887 104.402 36.9329C104.283 36.8771 104.146 36.8266 103.989 36.7812C103.832 36.7359 103.671 36.6853 103.507 36.6295C103.347 36.5737 103.188 36.5074 103.031 36.4307C102.878 36.354 102.74 36.2581 102.618 36.143C102.499 36.0244 102.402 35.8796 102.325 35.7087C102.252 35.5378 102.215 35.3303 102.215 35.0862C102.215 34.863 102.259 34.652 102.346 34.4532C102.433 34.2509 102.564 34.073 102.738 33.9195C102.913 33.7661 103.129 33.644 103.387 33.5533C103.649 33.4627 103.95 33.4173 104.292 33.4173C104.676 33.4173 105.025 33.4801 105.338 33.6056C105.652 33.7312 105.91 33.8951 106.113 34.0974L105.783 34.6101ZM108.921 38.9785C108.677 38.9785 108.46 38.9436 108.272 38.8738C108.084 38.8006 107.925 38.6977 107.796 38.5652C107.667 38.4327 107.569 38.2722 107.503 38.0839C107.437 37.8955 107.404 37.6828 107.404 37.4456V34.5369H106.896C106.819 34.5369 106.753 34.5125 106.697 34.4636C106.645 34.4148 106.619 34.3416 106.619 34.2439V33.6789L107.482 33.5219L107.775 32.1251C107.813 31.9682 107.92 31.8897 108.094 31.8897H108.848V33.5324H110.239V34.5369H108.848V37.3515C108.848 37.5014 108.882 37.62 108.952 37.7072C109.025 37.7944 109.128 37.838 109.261 37.838C109.331 37.838 109.39 37.831 109.439 37.8171C109.488 37.7996 109.529 37.7822 109.564 37.7648C109.599 37.7438 109.631 37.7264 109.658 37.7124C109.69 37.695 109.721 37.6863 109.753 37.6863C109.795 37.6863 109.829 37.6967 109.857 37.7177C109.885 37.7351 109.913 37.7665 109.941 37.8118L110.375 38.5024C110.176 38.6594 109.951 38.7779 109.7 38.8582C109.449 38.9384 109.189 38.9785 108.921 38.9785ZM114.383 35.5623C114.383 35.4123 114.362 35.2693 114.32 35.1333C114.282 34.9972 114.219 34.8769 114.132 34.7723C114.045 34.6677 113.935 34.5857 113.802 34.5264C113.67 34.4636 113.511 34.4322 113.326 34.4322C112.981 34.4322 112.711 34.5299 112.515 34.7252C112.32 34.9205 112.193 35.1995 112.134 35.5623H114.383ZM112.113 36.4202C112.158 36.926 112.301 37.2957 112.542 37.5293C112.786 37.763 113.103 37.8798 113.494 37.8798C113.693 37.8798 113.863 37.8572 114.006 37.8118C114.153 37.763 114.28 37.7107 114.388 37.6549C114.5 37.5956 114.599 37.5433 114.687 37.4979C114.777 37.4491 114.866 37.4247 114.953 37.4247C115.065 37.4247 115.152 37.4666 115.215 37.5503L115.633 38.0734C115.48 38.2513 115.311 38.3995 115.126 38.5181C114.941 38.6332 114.749 38.7256 114.55 38.7954C114.352 38.8616 114.151 38.907 113.949 38.9314C113.747 38.9593 113.551 38.9732 113.363 38.9732C112.986 38.9732 112.634 38.9122 112.306 38.7901C111.982 38.6646 111.698 38.4815 111.453 38.2408C111.213 37.9967 111.023 37.695 110.883 37.3358C110.744 36.9765 110.674 36.5597 110.674 36.0854C110.674 35.7192 110.733 35.3739 110.852 35.0496C110.974 34.7252 111.148 34.4427 111.375 34.202C111.602 33.9614 111.877 33.7713 112.202 33.6318C112.526 33.4888 112.892 33.4173 113.3 33.4173C113.645 33.4173 113.963 33.4731 114.252 33.5847C114.545 33.6928 114.796 33.8515 115.006 34.0608C115.218 34.2701 115.382 34.5282 115.497 34.8351C115.616 35.1385 115.675 35.4855 115.675 35.8762C115.675 35.9843 115.67 36.0732 115.66 36.143C115.649 36.2127 115.632 36.2685 115.607 36.3104C115.583 36.3522 115.55 36.3819 115.508 36.3993C115.466 36.4133 115.412 36.4202 115.346 36.4202H112.113ZM117.926 34.3904C118.097 34.0835 118.294 33.8411 118.517 33.6632C118.741 33.4853 119.002 33.3964 119.302 33.3964C119.546 33.3964 119.745 33.4539 119.899 33.569L119.804 34.6363C119.787 34.706 119.759 34.7549 119.721 34.7828C119.686 34.8072 119.637 34.8194 119.574 34.8194C119.518 34.8194 119.438 34.8124 119.334 34.7984C119.229 34.781 119.131 34.7723 119.041 34.7723C118.908 34.7723 118.789 34.7915 118.685 34.8298C118.584 34.8682 118.493 34.9223 118.413 34.992C118.333 35.0618 118.259 35.1472 118.193 35.2484C118.13 35.3495 118.071 35.4646 118.015 35.5936V38.8948H116.571V33.501H117.424C117.571 33.501 117.672 33.5272 117.727 33.5795C117.783 33.6318 117.823 33.7225 117.848 33.8515L117.926 34.3904ZM123.736 34.9031C123.599 34.7461 123.451 34.6363 123.291 34.5735C123.134 34.5107 122.966 34.4793 122.789 34.4793C122.614 34.4793 122.456 34.5125 122.313 34.5787C122.17 34.645 122.046 34.7496 121.941 34.8926C121.84 35.0321 121.761 35.2117 121.706 35.4315C121.65 35.6512 121.622 35.9128 121.622 36.2162C121.622 36.5162 121.645 36.7708 121.69 36.98C121.735 37.1893 121.8 37.3584 121.884 37.4875C121.971 37.6165 122.075 37.7107 122.197 37.77C122.32 37.8258 122.456 37.8537 122.605 37.8537C122.86 37.8537 123.073 37.8031 123.244 37.702C123.418 37.6008 123.582 37.4578 123.736 37.273V34.9031ZM125.179 31.0945V38.8948H124.29C124.105 38.8948 123.987 38.8111 123.934 38.6437L123.814 38.1728C123.706 38.2914 123.591 38.3995 123.469 38.4972C123.35 38.5948 123.221 38.6803 123.082 38.7535C122.942 38.8233 122.792 38.8773 122.632 38.9157C122.471 38.9541 122.297 38.9732 122.108 38.9732C121.819 38.9732 121.554 38.9122 121.313 38.7901C121.073 38.6681 120.863 38.4902 120.686 38.2565C120.511 38.0194 120.375 37.7299 120.277 37.3881C120.18 37.0463 120.131 36.6557 120.131 36.2162C120.131 35.8151 120.185 35.4419 120.293 35.0966C120.405 34.7514 120.562 34.4532 120.764 34.202C120.966 33.9509 121.21 33.7539 121.496 33.6109C121.782 33.4679 122.1 33.3964 122.449 33.3964C122.742 33.3964 122.987 33.44 123.186 33.5272C123.388 33.6144 123.572 33.733 123.736 33.8829V31.0945H125.179ZM129.2 36.64C128.848 36.6574 128.555 36.6888 128.321 36.7341C128.088 36.776 127.901 36.8318 127.762 36.9015C127.626 36.9713 127.528 37.0515 127.469 37.1422C127.413 37.2294 127.385 37.3253 127.385 37.4299C127.385 37.6392 127.442 37.7874 127.558 37.8746C127.676 37.9618 127.84 38.0054 128.049 38.0054C128.29 38.0054 128.498 37.9636 128.672 37.8798C128.85 37.7927 129.026 37.6584 129.2 37.477V36.64ZM126.26 34.2491C126.578 33.9631 126.928 33.7504 127.312 33.6109C127.695 33.4679 128.11 33.3964 128.557 33.3964C128.878 33.3964 129.164 33.4487 129.415 33.5533C129.669 33.658 129.884 33.8044 130.058 33.9928C130.236 34.1776 130.372 34.3991 130.466 34.6572C130.561 34.9153 130.608 35.1978 130.608 35.5047V38.8948H129.948C129.812 38.8948 129.708 38.8756 129.635 38.8372C129.565 38.7989 129.507 38.7186 129.462 38.5966L129.347 38.2513C129.211 38.3699 129.078 38.4745 128.949 38.5652C128.824 38.6559 128.693 38.7326 128.557 38.7954C128.421 38.8547 128.274 38.9 128.117 38.9314C127.964 38.9628 127.791 38.9785 127.599 38.9785C127.362 38.9785 127.146 38.9471 126.951 38.8843C126.755 38.8215 126.586 38.7291 126.443 38.607C126.304 38.4815 126.196 38.3263 126.119 38.1414C126.042 37.9566 126.004 37.7438 126.004 37.5032C126.004 37.3044 126.054 37.1056 126.156 36.9068C126.257 36.708 126.429 36.5284 126.673 36.3679C126.921 36.204 127.249 36.0697 127.657 35.9651C128.069 35.857 128.583 35.7959 129.2 35.782V35.5047C129.2 35.1664 129.129 34.9188 128.986 34.7618C128.843 34.6014 128.637 34.5212 128.368 34.5212C128.17 34.5212 128.004 34.5456 127.871 34.5944C127.739 34.6398 127.622 34.6903 127.521 34.7461C127.423 34.7984 127.331 34.849 127.244 34.8978C127.157 34.9432 127.055 34.9659 126.94 34.9659C126.839 34.9659 126.754 34.9414 126.684 34.8926C126.618 34.8403 126.562 34.7793 126.517 34.7095L126.26 34.2491ZM136.573 33.501L133.664 40.3439C133.618 40.4416 133.563 40.5148 133.496 40.5636C133.434 40.6125 133.332 40.6369 133.193 40.6369H132.121L133.141 38.4606L130.975 33.501H132.241C132.356 33.501 132.445 33.5272 132.508 33.5795C132.57 33.6318 132.616 33.6928 132.644 33.7626L133.669 36.3418C133.707 36.4429 133.741 36.5458 133.768 36.6504C133.8 36.7516 133.829 36.8527 133.857 36.9539C133.92 36.7481 133.992 36.5423 134.072 36.3365L135.024 33.7626C135.052 33.6859 135.103 33.6231 135.176 33.5743C135.249 33.5254 135.329 33.501 135.416 33.501H136.573ZM136.548 38.1362C136.548 38.0211 136.569 37.913 136.61 37.8118C136.656 37.7072 136.717 37.6183 136.794 37.545C136.87 37.4683 136.959 37.409 137.06 37.3672C137.165 37.3218 137.278 37.2991 137.4 37.2991C137.519 37.2991 137.631 37.3218 137.735 37.3672C137.84 37.409 137.931 37.4683 138.007 37.545C138.084 37.6183 138.143 37.7072 138.185 37.8118C138.23 37.913 138.253 38.0211 138.253 38.1362C138.253 38.2548 138.23 38.3646 138.185 38.4658C138.143 38.5669 138.084 38.6559 138.007 38.7326C137.931 38.8058 137.84 38.8634 137.735 38.9052C137.631 38.9471 137.519 38.968 137.4 38.968C137.278 38.968 137.165 38.9471 137.06 38.9052C136.959 38.8634 136.87 38.8058 136.794 38.7326C136.717 38.6559 136.656 38.5669 136.61 38.4658C136.569 38.3646 136.548 38.2548 136.548 38.1362Z" fill="#0000C9"/>
</svg>
