<svg width="112" height="45" viewBox="0 0 112 45" fill="none" xmlns="http://www.w3.org/2000/svg">
  <path d="M93.5483 30.5146C91.468 30.5381 90.3738 29.2504 90.3738 26.964C90.3738 26.8133 90.3738 26.6625 90.3847 26.5117H98.5423C98.7081 25.9086 98.8154 25.2475 98.8154 24.6431C98.8154 21.8587 97.0682 19.7231 93.4767 19.7231C89.815 19.7231 86.5565 23.2502 86.5565 26.9515C86.5565 30.5021 88.9224 32.6599 92.8938 32.6599C94.6417 32.6599 96.3663 32.0803 97.5781 31.1868L96.8301 29.3417C95.8659 30.0622 94.714 30.4924 93.5483 30.5146ZM93.5242 21.7315C94.7367 21.7315 95.3561 22.4978 95.3561 24.1797C95.3561 24.3415 95.3429 24.5047 95.332 24.679H90.6828C91.1816 22.9044 92.2642 21.7315 93.5242 21.7315Z" fill="#0000C9"/>
  <path d="M61.2653 18.9469C61.2653 16.0575 58.9464 13.9468 55.4397 13.9468H48.6503L43.5264 32.3594H47.8069L49.6964 25.5723H53.4185C57.675 25.5723 61.2653 22.8917 61.2653 18.9469ZM51.7772 23.4146H50.3031L52.337 16.1046H53.882C55.8323 16.1046 56.9252 17.3922 56.9252 19.0977C56.9252 21.8364 54.7268 23.4146 51.7772 23.4146Z" fill="#0000C9"/>
  <path d="M55.8497 44.5374H59.9603V44.5637L66.2777 22.1025H70.5937L67.7631 32.3587H71.9133L75.3138 20.072H66.8475L67.3237 18.3666C67.5618 17.4731 67.9658 15.9419 68.537 14.1895C69.1309 12.3789 70.2124 11.2419 71.6638 11.2419C72.3654 11.2419 72.7935 11.5546 72.7935 12.0884C72.7694 12.668 72.2818 13.0055 72.2818 13.9336C72.2818 15.0124 73.2218 15.8479 74.4336 15.8479C75.9427 15.8479 77.1566 14.6639 77.1566 13.2143C77.1566 10.975 75.1947 9.50195 72.1982 9.50195C67.8113 9.50195 64.9212 12.2406 63.114 18.6211" fill="#0000C9"/>
  <path d="M87.8678 20.0713H76.8703L76.3342 22.1018H81.6496L73.3971 32.358H85.0373L85.5727 30.3275H79.5802L87.8678 20.0713Z" fill="#0000C9"/>
  <path d="M109.634 19.8652C108.149 19.8652 106.567 20.8058 105.318 22.7547L106.055 20.0741H101.907L98.5057 32.3496H102.655L104.189 26.8267C104.806 24.5638 106.317 22.3591 107.316 22.3591C108.398 22.3591 107.994 24.3315 109.848 24.3315C111.192 24.3315 112 23.1254 112 22.0229C112.012 20.7353 110.954 19.8652 109.634 19.8652Z" fill="#0000C9"/>
  <path d="M0.299683 24.1336C0.301132 24.1295 0.30258 24.1267 0.304029 24.1225C0.309824 24.1018 0.31417 24.0811 0.319965 24.0603L0.299683 24.1336Z" fill="white"/>
  <path d="M3.37768 21.2339C6.85035 19.635 12.8814 19.1689 20.5695 20.0749L22.7452 12.278C11.6398 10.8975 3.53077 12.4522 2.17572 17.3832L2.12044 17.5823C1.89082 18.747 2.35573 19.9863 3.37768 21.2339Z" fill="#3D96F7"/>
  <path d="M37.768 18.9194C34.2969 20.517 28.2629 20.9789 20.5706 20.0716L18.3949 27.8684C29.5003 29.2489 37.6093 27.6942 38.9644 22.7632L39.0168 22.5751C39.2521 21.4077 38.7886 20.167 37.768 18.9194Z" fill="#0000C9"/>
  <path d="M9.58273 0L7.40698 7.79689C20.4117 8.70837 33.6391 13.8745 37.7666 18.9203C39.3612 18.1872 40.4142 17.2134 40.8409 16.024L39.0153 22.5774C39.0025 22.6396 38.9912 22.7033 38.9742 22.7655L40.4483 17.486C40.9245 15.8275 41.1499 14.9561 41.1499 14.2728C41.1385 8.26028 24.98 0.917036 9.58273 0Z" fill="#3D96F7"/>
  <path d="M37.766 18.9188C38.7866 20.1677 39.25 21.4085 39.0147 22.5744L40.8404 16.021C40.4138 17.2119 39.3591 18.1843 37.766 18.9188Z" fill="#3D96F7"/>
  <path d="M3.37769 21.2319C1.78594 21.965 0.731386 22.936 0.301909 24.1228C0.102054 24.8932 0 25.416 0 25.8628C0 31.8961 16.1585 39.2283 31.5672 40.1453L33.7316 32.3485C20.7325 31.4369 7.51086 26.275 3.37769 21.2319Z" fill="#0000C9"/>
  <path d="M2.16353 17.3787L0.700769 22.6582C0.547688 23.2046 0.420121 23.6638 0.31665 24.0594L2.1196 17.5779C2.13235 17.5101 2.14511 17.4437 2.16353 17.3787Z" fill="white"/>
  <path d="M3.37816 21.2318C2.3562 19.9855 1.89129 18.7462 2.12091 17.5789L0.31796 24.0604C0.31229 24.0811 0.306621 24.1018 0.302368 24.1226C0.731842 22.9358 1.7864 21.9648 3.37816 21.2318Z" fill="#0000C9"/>
</svg>
